<svg xmlns="http://www.w3.org/2000/svg" xmlns:xlink="http://www.w3.org/1999/xlink" viewBox="0 0 222.28 206.03"><defs><style>.cls-1{fill:url(#linear-gradient);}.cls-2{fill:url(#linear-gradient-2);}.cls-3{fill:url(#radial-gradient);}.cls-4{fill:url(#linear-gradient-3);}.cls-5{fill:url(#linear-gradient-4);}.cls-6{fill:url(#linear-gradient-5);}.cls-7{fill:url(#linear-gradient-6);}.cls-8{fill:url(#linear-gradient-7);}.cls-9{fill:url(#linear-gradient-8);}</style><linearGradient id="linear-gradient" x1="17.37" y1="79.6" x2="204.92" y2="79.6" gradientUnits="userSpaceOnUse"><stop offset="0" stop-color="#a4c254"/><stop offset="1" stop-color="#067144"/></linearGradient><linearGradient id="linear-gradient-2" x1="160.5" y1="149.86" x2="138.29" y2="-23.69" gradientUnits="userSpaceOnUse"><stop offset="0" stop-color="#a4c254"/><stop offset="1" stop-color="#2db670"/></linearGradient><radialGradient id="radial-gradient" cx="114.17" cy="93.28" r="22.15" gradientUnits="userSpaceOnUse"><stop offset="0" stop-color="#a4c254"/><stop offset="0.2" stop-color="#a1c054"/><stop offset="0.35" stop-color="#97bb53"/><stop offset="0.5" stop-color="#86b251"/><stop offset="0.64" stop-color="#6ea64e"/><stop offset="0.77" stop-color="#4e964b"/><stop offset="0.9" stop-color="#298348"/><stop offset="1" stop-color="#067144"/></radialGradient><linearGradient id="linear-gradient-3" x1="15.36" y1="175.48" x2="15.36" y2="218.46" xlink:href="#linear-gradient"/><linearGradient id="linear-gradient-4" x1="50.78" y1="175.48" x2="50.78" y2="218.46" xlink:href="#linear-gradient"/><linearGradient id="linear-gradient-5" x1="93.76" y1="175.48" x2="93.76" y2="218.46" xlink:href="#linear-gradient"/><linearGradient id="linear-gradient-6" x1="137.21" y1="175.48" x2="137.21" y2="218.46" xlink:href="#linear-gradient"/><linearGradient id="linear-gradient-7" x1="172.43" y1="175.48" x2="172.43" y2="218.46" xlink:href="#linear-gradient"/><linearGradient id="linear-gradient-8" x1="207.17" y1="175.48" x2="207.17" y2="218.46" xlink:href="#linear-gradient"/></defs><title>Asset 3</title><g id="Layer_2" data-name="Layer 2"><g id="Layer_1-2" data-name="Layer 1"><path class="cls-1" d="M204.9,92.3a93.77,93.77,0,0,0-187.53,1c0,22.81,4.18,38.32,17.78,54.53l.24.26c4.42,5.37,15.46,11.44,23.66,11.11,12.87-.52,23.75-8.32,23.75-21.39,0-5.28-1.64-8.24-4-13.4l-3.1-6.19C73,110.84,72,107.73,72,99.36c0-36,30-64.39,64.08-64.07,33,.31,59.55,28.23,59.33,64.18-.15,24.49-11.57,46.82-30.45,58C165,157.45,205.88,143.77,204.9,92.3Z"/><path class="cls-2" d="M173.87,151.72c-4.51,4.07-10,7.31-16.45,7.31A22.62,22.62,0,0,1,135,136.23a23,23,0,0,1,4-13l0,0A45.8,45.8,0,0,0,108.5,43.47q-1.69,0-3.36.12l-.62.06a62,62,0,0,1,30.69-8.44c33.63,0,60.4,27.79,60.4,62C195.61,97.19,198.33,129.65,173.87,151.72Z"/><circle class="cls-3" cx="114.17" cy="93.28" r="22.15"/><path class="cls-4" d="M2,163.51h.33c1.34.3,2,.94,2,1.93V180a15.49,15.49,0,0,1,11-4.72,15.5,15.5,0,0,1,15.35,15.35q0,8.64-8.2,13.6A15.08,15.08,0,0,1,15.71,206h-.89q-6.21,0-11.55-5.82A16.74,16.74,0,0,1,0,189.88V165.44C0,164.45.67,163.81,2,163.51Zm2.34,26.81v.57q0,6.86,7.19,10.21a12.35,12.35,0,0,0,3.47.56h.69q6.67,0,10.09-7.18a14.07,14.07,0,0,0,.56-3.35v-.69q0-6.83-7.3-10.21a14.88,14.88,0,0,0-3.47-.56h-.45q-6.68,0-10.09,7.06A11.09,11.09,0,0,0,4.36,190.32Z"/><path class="cls-5" d="M50.8,175.66q8.61,0,13.63,8.43A17.18,17.18,0,0,1,66,191.18V204c0,1.09-.7,1.75-2.11,2h-.12a2.25,2.25,0,0,1-2.11-1.66v-.12l.12-2.76v-.12Q56.86,206,51.21,206h-.86q-7.71,0-12.88-7.75a16.67,16.67,0,0,1-1.87-7.54q0-8.46,8.31-13.42A16.1,16.1,0,0,1,50.8,175.66Zm-10.87,15V191q0,6.62,6.65,10a11,11,0,0,0,3.77.77h.86c3.69,0,6.72-1.84,9.12-5.52a11.14,11.14,0,0,0,1.3-5v-.44q0-6.39-6.29-9.77a11.08,11.08,0,0,0-4.54-1h-.12q-6.7,0-10.09,7A12.92,12.92,0,0,0,39.93,190.62Z"/><path class="cls-6" d="M74,176.16c1.39.36,2.08,1,2.08,1.84v1.1A12.25,12.25,0,0,1,84,176.16q5.64,0,9.92,5.23,1.74-3.24,7.18-4.9l2.5-.33q6.82,0,10.8,6.53a12.19,12.19,0,0,1,1.31,5.23v16.27c0,.95-.69,1.56-2.08,1.84h-.09c-1.38-.24-2.08-.93-2.08-2.08V188.16q0-5.39-5.67-7.43l-1.51-.2h-1.1q-4.52,0-6.89,5.22a7.32,7.32,0,0,0-.32,2v16.15c-.26,1.45-1,2.17-2.05,2.17h-.12c-1.39-.24-2.08-.89-2.08-2V190.65q0-5.58-1.51-7a7.32,7.32,0,0,0-6.12-3.14h-.33q-5.19,0-7.3,5.55a15.08,15.08,0,0,0-.33,3.5v14.49c0,1.07-.69,1.72-2.08,2h-.08c-1.11,0-1.81-.72-2.08-2.17v-25.2C72,177,72.73,176.16,74,176.16Z"/><path class="cls-7" d="M123.86,163.51h.33c1.35.3,2,.94,2,1.93V180a15.36,15.36,0,0,1,26.36,10.63q0,8.64-8.19,13.6a15.12,15.12,0,0,1-6.83,1.78h-.89q-6.21,0-11.55-5.82a16.74,16.74,0,0,1-3.27-10.33V165.44C121.84,164.45,122.52,163.81,123.86,163.51Zm2.35,26.81v.57q0,6.86,7.18,10.21a12.41,12.41,0,0,0,3.48.56h.68q6.67,0,10.09-7.18a14.19,14.19,0,0,0,.57-3.35v-.69q0-6.83-7.31-10.21a14.88,14.88,0,0,0-3.47-.56H137q-6.69,0-10.1,7.06A11.32,11.32,0,0,0,126.21,190.32Z"/><path class="cls-8" d="M172.43,175.81a15.26,15.26,0,0,1,15.12,15.11q0,8.49-8.05,13.36a14.91,14.91,0,0,1-6.74,1.75h-.89q-6.09,0-11.34-5.73a16.07,16.07,0,0,1-3.21-9.38q0-7.36,6.5-12.35A15.35,15.35,0,0,1,172.43,175.81Zm-10.68,14.78v.54q0,6,5.84,9.38a9.68,9.68,0,0,0,4.52,1.1h.65q6.27,0,9.59-6.51a11.31,11.31,0,0,0,.77-4v-.54q0-5-4.63-8.49a10.57,10.57,0,0,0-6.18-1.87q-6.85,0-10,7.15A11,11,0,0,0,161.75,190.59Z"/><path class="cls-9" d="M207.17,175.81a15.25,15.25,0,0,1,15.11,15.11q0,8.49-8,13.36A14.94,14.94,0,0,1,207.5,206h-.89q-6.09,0-11.34-5.73a16.07,16.07,0,0,1-3.21-9.38q0-7.36,6.5-12.35A15.35,15.35,0,0,1,207.17,175.81Zm-10.69,14.78v.54q0,6,5.85,9.38a9.67,9.67,0,0,0,4.51,1.1h.66q6.25,0,9.59-6.51a11.31,11.31,0,0,0,.77-4v-.54q0-5-4.63-8.49a10.57,10.57,0,0,0-6.18-1.87q-6.86,0-10,7.15A11,11,0,0,0,196.48,190.59Z"/></g></g></svg>